<?xml version="1.0" encoding="UTF-8"?>
<svg xmlns="http://www.w3.org/2000/svg" viewBox="0 0 1254 1254" role="img" aria-label="Ollama">
  <symbol id="root" viewBox="0 0 1254 1254">
    <path fill="currentColor" fill-rule="evenodd" d="M 408.410 76.954 C 391.715 85.297, 375.682 104.583, 368.162 125.367 C 358.001 153.446, 359.485 180.056, 373.025 212.572 C 374.241 215.492, 374.026 216.111, 368.681 225.072 C 357.674 243.527, 354.816 254.251, 359.440 259.746 L 362.108 262.918 359.088 269.799 C 342.176 308.331, 334.595 342.130, 341.029 350.310 C 342.862 352.640, 342.844 352.828, 339.883 362.035 C 332.825 383.981, 330.264 409.500, 334.235 418.316 C 335.898 422.011, 335.878 422.392, 333.586 430.316 C 325.968 456.658, 325.636 488.253, 332.873 498.042 C 334.762 500.598, 334.779 501.057, 333.321 510.597 C 330.640 528.135, 332.674 548.465, 338.036 557.725 C 339.584 560.400, 339.758 561.851, 339.054 566.225 C 334.432 594.944, 339.421 622.224, 352.907 641.981 L 356.839 647.742 357.470 663.121 C 359.190 705.063, 367.471 730.811, 382.885 742.147 C 385.810 744.298, 386.887 745.894, 387.345 748.755 C 389.853 764.439, 402.752 781.390, 416.522 787.098 C 419.535 788.346, 422 789.860, 422 790.462 C 422 793.044, 429.084 805.960, 433.387 811.223 C 438.335 817.275, 447.188 824.099, 455.514 828.278 L 460.528 830.794 463.332 845.647 C 469.208 876.772, 474.980 896.311, 484.354 916.812 C 496.955 944.369, 501.968 971.796, 501.989 1013.289 C 502.012 1057.191, 498.251 1072.895, 484.349 1086.939 C 469.208 1102.234, 467.035 1112.372, 477.836 1117.329 C 484.185 1120.243, 507.327 1120.481, 516.246 1117.723 C 532.609 1112.664, 536.016 1102.803, 536.477 1059.173 C 536.675 1040.448, 537.320 1026.510, 538.338 1019 C 541.891 992.779, 543.067 987.954, 544.253 994.750 C 544.516 996.263, 545.886 1003.125, 547.295 1010 C 552.581 1035.779, 552.831 1063.246, 548.018 1089.475 C 545.529 1103.039, 543.934 1106.304, 535.869 1114.337 C 527.279 1122.893, 524.030 1128.307, 523.312 1135.263 C 522.790 1140.319, 522.932 1140.765, 525.840 1143.212 C 532.346 1148.687, 559.846 1149.773, 572.255 1145.045 C 583.089 1140.918, 585.588 1134.808, 586.986 1109.032 C 587.509 1099.389, 588.403 1088.800, 588.972 1085.500 C 589.854 1080.384, 594.800 1043.200, 600.545 998.500 C 601.960 987.491, 602.534 985.591, 607.502 975.500 C 614.212 961.868, 615.464 955.688, 614.733 939.808 C 614.238 929.067, 614.387 927.417, 616.104 924.628 C 620.917 916.816, 623.187 906.311, 623.746 889.269 L 624.279 873.038 627.889 872.528 C 646.966 869.829, 656.088 866.232, 665.536 857.682 L 671.554 852.236 677.651 853.726 C 685.208 855.572, 691.877 853.994, 699.934 848.451 L 705.116 844.887 706.766 849.193 C 716.172 873.750, 733.924 899.693, 752.450 915.957 C 765.922 927.783, 768.354 933.067, 768.351 950.500 C 768.349 962.788, 767.667 968.464, 763.370 992 C 758.430 1019.053, 748.781 1060.293, 745.161 1069.819 C 743.661 1073.767, 741.374 1076.708, 735.640 1082.063 C 724.275 1092.676, 719.291 1105.243, 724.266 1110.741 C 729.601 1116.637, 754.369 1117.469, 766.382 1112.155 C 776.526 1107.668, 779.309 1102.386, 787.887 1071.330 C 799.841 1028.050, 820.169 970.763, 822.251 974.485 C 828.373 985.424, 830.640 1035.594, 826.464 1067.710 C 823.023 1094.173, 820.092 1101.918, 809.625 1112.217 C 801.825 1119.891, 798.622 1125.257, 797.445 1132.620 C 796.087 1141.112, 804.220 1144.954, 823.614 1144.984 C 852.852 1145.030, 858.921 1139.141, 861.005 1108.707 C 862.257 1090.412, 864.531 1078.936, 876.103 1032.500 C 886.071 992.501, 888.908 982.829, 891.939 978.500 C 903.010 962.690, 907.379 942.355, 903.433 925.006 C 902.160 919.409, 902.100 917.685, 903.111 915.809 C 906.338 909.820, 903.816 892.796, 897.064 875 C 893.691 866.109, 892 854.542, 892 840.356 C 892 830.718, 892.193 829.713, 894.905 825.265 C 902.070 813.514, 907.567 791.405, 908.651 769.979 C 909.012 762.841, 909.351 757.006, 909.404 757.013 C 909.457 757.020, 912.353 757.920, 915.839 759.013 C 932.191 764.139, 949.284 759.072, 957.528 746.655 C 962.148 739.698, 962.138 735.028, 957.500 733.634 C 949.881 731.345, 947.466 728.999, 945.990 722.456 C 945.329 719.527, 945.486 718.780, 946.840 718.387 C 963.295 713.619, 973.334 696.309, 967.602 682.590 C 965.894 678.501, 965.019 677.923, 960.002 677.566 C 952.366 677.022, 947.374 671.113, 941.994 656.249 L 939.732 649.999 942.487 647.832 C 948.528 643.080, 943.299 623.437, 932.825 611.538 C 922.999 600.376, 909.958 594.882, 893.216 594.852 L 882.932 594.833 880.773 590.167 C 874.309 576.198, 854.369 563.377, 833.708 559.905 C 827.307 558.830, 826.026 558.262, 824.393 555.775 C 817.541 545.339, 794.896 538, 769.550 538 C 761.136 538, 758.993 537.693, 757.872 536.329 C 750.083 526.847, 723.627 520.657, 700.525 522.913 L 689.032 524.035 684.946 521.076 C 673.351 512.677, 651.882 510.273, 627.706 514.667 C 619.062 516.238, 618.873 516.230, 616.693 514.182 C 608.891 506.851, 580.503 502.650, 560.749 505.901 L 555.998 506.683 546.393 495.879 C 534.698 482.726, 529.133 475.674, 523.206 466.500 C 499.418 429.676, 494.224 391, 507.056 346.229 C 510.371 334.664, 510.467 334, 508.823 334 C 505.091 334, 490.721 325.516, 484.152 319.435 C 480.177 315.754, 477.077 312.590, 477.263 312.404 C 477.449 312.218, 481.629 314.016, 486.551 316.401 C 506.356 325.996, 521.667 330.580, 531.061 329.728 C 543.351 328.614, 555 320.013, 555 312.053 C 555 309.532, 549.365 306.837, 546.816 308.140 C 544.781 309.179, 538.249 309.152, 535.541 308.093 C 534.030 307.502, 534.944 307.004, 539.541 305.914 L 545.500 304.500 545.827 299.500 C 546.309 292.130, 544.162 288.829, 536.827 285.664 C 530.296 282.846, 529.892 280.996, 535.809 281.007 C 543.383 281.020, 548.942 287.120, 549.731 296.282 C 550.396 304.012, 551.169 305, 556.546 305 C 565.014 305, 571.031 296.053, 569.496 285.743 C 569.067 282.859, 568.785 278.575, 568.869 276.222 C 569.157 268.202, 563.839 262.123, 554.183 259.435 C 548.116 257.746, 535.668 253.862, 535.245 253.526 C 534.474 252.913, 537.400 247, 538.475 247 C 541.471 247, 542.165 244.259, 539.796 241.779 C 538.533 240.456, 536.723 237.921, 535.773 236.145 C 532.189 229.448, 522.984 228.441, 516.597 234.049 C 512.127 237.974, 511.966 237.917, 508.216 231.095 C 504.979 225.208, 504.955 225.190, 499.881 224.845 C 495.153 224.524, 494.689 224.701, 493.330 227.329 C 491.489 230.890, 486.025 233.343, 482.808 232.053 C 481.204 231.409, 481.011 231.107, 482.173 231.063 C 485.135 230.951, 489.896 226.069, 490.576 222.448 C 491.165 219.306, 491.442 219.079, 493.860 219.758 C 502.446 222.170, 510.965 218.594, 514.233 211.205 C 519.104 200.195, 511.004 188.231, 496.121 184.452 L 491.601 183.304 491.833 178.402 C 492.290 168.748, 488.317 161.380, 480.554 157.483 C 473.601 153.993, 467.910 154.536, 460.786 159.370 L 457.335 161.712 454.044 158.254 C 443.370 147.036, 423.127 152.789, 418.931 168.233 C 418.293 170.580, 417.635 173.003, 417.468 173.618 C 417.150 174.789, 411.865 176.185, 411 175.327 C 410.725 175.054, 410.540 167.556, 410.588 158.665 C 410.709 136.390, 413.669 121.526, 423.368 94.500 C 427.530 82.901, 427.763 80.239, 424.927 76.635 C 422.020 72.939, 416.219 73.051, 408.410 76.954 M 507.025 80.474 C 504.776 82.868, 504.730 83.261, 505.601 92.724 C 508.295 122.009, 506.586 141.380, 499.055 166.940 L 495.240 179.886 500.347 180.981 C 509.385 182.919, 515.887 187.763, 519.752 195.437 L 521.735 199.374 526.705 192.607 C 546.469 165.691, 551.554 131.544, 539.558 106.284 C 529.332 84.751, 514.248 72.784, 507.025 80.474"/>
  </symbol>
  <use href="#root"/>
</svg>
