<?xml version="1.0" encoding="UTF-8"?>
<svg xmlns="http://www.w3.org/2000/svg" viewBox="0 0 100 100" role="img" aria-label="Ollama">
  <symbol id="root" viewBox="0 0 100 100">
    <g fill="currentColor">
      <path d="M 38 6 C 38 3, 42 3, 43 6 L 45 18 L 49 18 L 51 6 C 52 3, 56 3, 56 6 L 56 19 C 62 21, 66 26, 67 32 L 80 32 C 84 32, 84 38, 80 38 L 67 38 L 67 50 C 67 58, 64 64, 60 68 L 65 88 C 65 92, 62 94, 59 94 L 57 94 C 54 94, 53 92, 53 90 L 51 76 L 43 76 L 41 90 C 41 92, 40 94, 37 94 L 35 94 C 32 94, 29 92, 29 88 L 34 68 C 30 64, 27 58, 27 50 L 27 36 C 23 34, 22 28, 24 22 C 26 16, 32 12, 38 11 Z" />
      <circle cx="42" cy="26" r="1.6" fill="#fff"/>
    </g>
  </symbol>
  <use href="#root"/>
</svg>
